<svg width="27" height="27" viewBox="0 0 27 27" fill="none" xmlns="http://www.w3.org/2000/svg">
<g clip-path="url(#clip0_1252_3350)">
<path d="M8.3138 1.32271L9.85348 0.858949C10.5544 0.647497 11.3083 0.698333 11.9744 1.00197C12.6406 1.3056 13.1734 1.84128 13.4736 2.50901L14.4317 4.64045C14.6899 5.21464 14.7618 5.85526 14.6374 6.47241C14.513 7.08955 14.1984 7.65226 13.7379 8.08155L12.0638 9.64257C12.0431 9.66189 12.0261 9.68484 12.0137 9.71028C11.8384 10.0683 12.1046 11.0246 12.9384 12.4697C13.8789 14.0984 14.6052 14.7421 14.9419 14.6428L17.1392 13.9704C17.7409 13.7866 18.3851 13.7958 18.9814 13.9965C19.5777 14.1973 20.0962 14.5796 20.4643 15.0899L21.8259 16.9755C22.2534 17.5676 22.4514 18.2947 22.3832 19.0218C22.3149 19.7489 21.9851 20.4264 21.4549 20.9286L20.2835 22.037C19.8761 22.4229 19.3814 22.7045 18.8416 22.8577C18.3019 23.011 17.733 23.0314 17.1837 22.9172C13.9216 22.2383 10.999 19.6116 8.39078 15.0945C5.78167 10.5747 4.96823 6.72552 6.01633 3.55989C6.19177 3.02991 6.49221 2.54994 6.89226 2.16055C7.2923 1.77116 7.77927 1.48379 8.3138 1.32271ZM8.71727 2.65463C8.39654 2.75123 8.10378 2.92362 7.86372 3.15722C7.62366 3.39082 7.44336 3.67878 7.33805 3.99675C6.43464 6.72459 7.16645 10.1898 9.59656 14.3989C12.0248 18.6052 14.6571 20.9704 17.4684 21.5547C17.7981 21.6231 18.1394 21.6108 18.4632 21.5187C18.787 21.4267 19.0838 21.2576 19.3281 21.026L20.4986 19.9186C20.7842 19.6482 20.962 19.2834 20.9988 18.8919C21.0356 18.5004 20.9291 18.1088 20.699 17.7899L19.3374 15.9033C19.1392 15.6286 18.8601 15.4228 18.5391 15.3147C18.218 15.2066 17.8712 15.2016 17.5473 15.3004L15.3444 15.9748C14.1256 16.3374 12.9792 15.3218 11.7345 13.1644C10.6799 11.339 10.3145 10.0201 10.7652 9.09904C10.8524 8.92096 10.9711 8.7605 11.1158 8.62508L12.79 7.06406C13.0381 6.83291 13.2075 6.52987 13.2745 6.1975C13.3416 5.86513 13.3029 5.52011 13.1638 5.21088L12.2047 3.08036C12.0431 2.72072 11.7561 2.43221 11.3974 2.26869C11.0386 2.10518 10.6326 2.07784 10.2551 2.1918L8.71727 2.65463Z" fill="#1D438E"/>
</g>
<defs>
<clipPath id="clip0_1252_3350">
<rect width="25.9706" height="25.9706" fill="white" transform="translate(0.448242 0.515625)"/>
</clipPath>
</defs>
</svg>
