<svg width="67" height="100" viewBox="0 0 67 100" fill="none" xmlns="http://www.w3.org/2000/svg">
<path d="M31.6144 0.11895C27.2633 0.496803 22.8597 2.47729 19.426 5.60438C16.1495 8.5751 13.6725 12.7446 12.5323 17.1485C11.8508 19.8326 11.8377 20.0281 11.746 28.38L11.6673 36.2628L11.3266 37.5006C10.016 42.3607 6.43812 45.592 1.87729 46.048C0.422543 46.1913 -0.245854 46.9992 0.0817918 48.1979C0.488073 49.6832 1.83797 52.1719 3.14856 53.8397C3.96112 54.869 6.03184 56.9146 6.26775 56.9146C6.47744 56.9146 6.35949 57.1883 5.66488 58.2436C3.81695 61.071 2.5719 64.3545 1.95593 67.9637C1.73313 69.2406 1.72002 70.4914 1.72002 83.4949V97.6319L2.00835 98.1661C2.37531 98.8436 3.18787 99.5733 3.83006 99.7948C4.5902 100.068 62.4131 100.068 63.1733 99.7948C63.8155 99.5733 64.628 98.8436 64.995 98.1661L65.2833 97.6319V83.4949C65.2833 70.4914 65.2702 69.2406 65.0474 67.9637C64.4314 64.3545 63.1864 61.071 61.3385 58.2436C60.6438 57.1883 60.5259 56.9146 60.7487 56.9146C61.0108 56.9146 63.2126 54.6866 64.0907 53.5139C65.1129 52.1719 66.5153 49.579 66.8691 48.3673C67.0264 47.807 67.0395 47.5725 66.9215 47.2207C66.6725 46.465 66.2925 46.2304 64.9819 46.035C62.8849 45.7223 61.6268 45.2532 60.1851 44.2239C58.0096 42.6864 56.45 40.3671 55.6767 37.5006L55.336 36.2628L55.2573 28.38C55.1656 20.0281 55.1525 19.8326 54.471 17.1485C52.7541 10.4904 48.2457 4.87473 42.3481 2.06035C39.9497 0.91375 37.8397 0.340446 35.1792 0.105919C33.5541 -0.0374069 33.3182 -0.0374069 31.6144 0.11895ZM36.5815 3.55874C39.9366 4.14507 43.3179 5.95617 45.9522 8.5751C48.4292 11.0637 50.133 13.9433 51.1421 17.4221C51.8629 19.9108 51.876 20.0541 51.9809 28.7709C52.0595 35.5592 52.1119 37.0576 52.2823 37.7873C53.0294 40.8492 54.2482 43.0382 56.4238 45.2011C58.1537 46.908 60.1327 48.1197 62.2428 48.7842C62.649 48.9145 62.9898 49.0839 62.9898 49.1751C62.9898 49.6051 61.2729 51.8852 59.9623 53.1882L58.5338 54.6084L57.4591 53.5791C53.5012 49.8135 48.5472 47.5203 42.9379 46.8819C42.1122 46.7777 38.6916 46.7516 32.7153 46.7777C22.7942 46.8298 22.9253 46.8167 19.7405 47.7288C16.0447 48.7842 12.5061 50.8038 9.70147 53.4357L8.46952 54.5954L7.04099 53.1752C6.09737 52.237 5.33723 51.351 4.813 50.5302C4.3674 49.8526 4.01354 49.2402 4.01354 49.1621C4.01354 49.0839 4.35429 48.9145 4.76057 48.7842C6.87061 48.1197 8.84959 46.908 10.5796 45.2011C12.7551 43.0382 13.974 40.8492 14.721 37.7873C14.8914 37.0576 14.9438 35.5592 15.0224 28.7709C15.1273 20.0541 15.1404 19.9108 15.8612 17.4221C16.8704 13.9433 18.5741 11.0637 21.0511 8.5751C25.2712 4.36657 30.8281 2.5685 36.5815 3.55874ZM42.2302 50.1914C42.4005 50.6344 40.854 53.0449 39.5959 54.2566C37.9314 55.8723 35.9394 56.654 33.5017 56.654C30.4349 56.654 27.8531 55.2859 26.0707 52.7191C25.1664 51.4292 24.5504 50.1784 24.7601 50.1002C24.8387 50.0611 28.7967 50.022 33.541 50.022C40.8278 50.009 42.1646 50.035 42.2302 50.1914ZM21.8244 51.9113C24.2489 57.1492 28.2855 59.9375 33.5017 59.9375C38.7571 59.9375 42.6889 57.2013 45.2052 51.8331C45.4804 51.2207 45.7294 50.7126 45.7425 50.6865C45.8212 50.6083 48.6127 51.6377 48.652 51.768C48.6913 51.8461 45.6115 58.4391 41.8239 66.4262C36.6733 77.3058 34.8516 81.0453 34.5501 81.3059C34.2225 81.6056 34.0259 81.6707 33.5017 81.6707C32.9381 81.6707 32.7808 81.6056 32.3877 81.2407C32.0338 80.915 30.5529 77.8922 25.0746 66.2959C19.2556 53.996 18.2334 51.7549 18.4037 51.6507C18.5872 51.5465 21.0118 50.6865 21.1822 50.6735C21.2215 50.6605 21.5098 51.2207 21.8244 51.9113ZM22.2962 68.0549C26.8439 77.6576 29.3602 82.8434 29.6748 83.2212C31.6669 85.6447 35.6772 85.5144 37.5121 82.9737C37.7349 82.6479 41.0113 75.8726 44.7727 67.9246C48.5341 59.9635 51.6532 53.4227 51.7057 53.3706C51.745 53.3185 52.1644 53.54 52.6362 53.8657C57.1184 56.9537 60.3817 61.8137 61.535 67.0907C62.0462 69.449 62.0855 70.7911 62.0462 84.016L62.0069 96.7198H33.5017H4.99648L4.95716 83.9509C4.93095 75.3123 4.97027 70.7129 5.06201 69.7487C5.7173 63.3252 8.91512 57.7616 14.1181 54.0612C14.721 53.6312 15.2583 53.3185 15.2977 53.3706C15.3501 53.4227 18.4955 60.0287 22.2962 68.0549Z" fill="#1D438E"/>
<path d="M29.1242 10.5444C25.8477 10.9614 23.0693 12.2513 21.3 14.1666C18.8623 16.7856 18.1284 19.613 18.5478 24.8118C19.3997 35.2354 24.026 41.711 31.5881 43.0531C32.8725 43.2746 35.5067 43.3137 36.6601 43.1052C43.6324 41.8935 47.6427 35.3135 48.4422 23.8476C48.7043 19.9127 48.5995 19.0918 47.7345 18.6488C47.4724 18.5185 46.7647 18.4012 45.7424 18.3361C43.1212 18.1667 40.9981 17.4761 39.2026 16.1992C37.8265 15.222 36.6207 13.6455 36.1227 12.1601C35.7558 11.0526 35.3364 10.6747 34.2748 10.5314C33.2525 10.375 30.3561 10.3881 29.1242 10.5444ZM33.554 14.5445C35.4019 18.1797 39.1502 20.6944 43.842 21.4371L45.2706 21.6586L45.2182 22.8313C44.7464 31.6001 42.4528 37.1116 38.4687 39.053C36.778 39.8739 36.0048 40.0172 33.8292 39.939C31.706 39.8609 30.5921 39.6003 29.0456 38.7924C26.3589 37.4113 24.2357 34.61 23.0169 30.8705C22.2043 28.3558 21.6015 23.8736 21.7325 21.2156C21.8374 19.2351 22.5975 17.4631 23.9081 16.1602C24.8124 15.2611 27.4335 14.1015 29.2684 13.7888C29.6091 13.7367 30.6183 13.6845 31.4964 13.6715L33.1084 13.6585L33.554 14.5445Z" fill="#1D438E"/>
<path d="M9.59633 73.4642C9.15074 73.6075 8.77067 73.9333 8.52166 74.4023C8.28575 74.8584 8.28575 76.7216 8.52166 77.2949C8.90172 78.1939 9.92398 78.5457 10.8283 78.0897C11.4574 77.7639 11.6146 77.2949 11.6146 75.7574C11.6146 74.4935 11.5884 74.3632 11.287 73.9984C10.9724 73.6466 10.7628 73.5294 10.173 73.3991C10.0681 73.373 9.80603 73.4121 9.59633 73.4642Z" fill="#1D438E"/>
<path d="M9.59692 81.8025C9.15133 81.9458 8.77126 82.2716 8.52225 82.7406C8.24702 83.2618 8.26013 90.0893 8.53535 91.0014C8.78436 91.8352 9.46587 92.63 10.2653 93.0209C10.8682 93.3076 11.0386 93.3336 14.3019 93.3727C18.5351 93.4379 18.9938 93.3858 19.5705 92.8125C19.9505 92.4346 20.003 92.2913 20.003 91.731C20.003 90.9232 19.5836 90.3499 18.8496 90.1414C18.5744 90.0763 16.8838 90.0111 14.9965 90.0111H11.6152V86.3759V82.7406L11.2876 82.3367C10.973 81.9849 10.7633 81.8677 10.1736 81.7374C10.0687 81.7113 9.80662 81.7504 9.59692 81.8025Z" fill="#1D438E"/>
<path d="M24.6678 90.1409C23.5014 90.4927 23.1082 91.9389 23.9601 92.838C24.7202 93.6458 27.2759 93.5937 28.036 92.7468C28.7962 91.8998 28.3637 90.4536 27.2366 90.1409C26.6599 89.9845 25.2052 89.9845 24.6678 90.1409Z" fill="#1D438E"/>
</svg>
