<svg width="27" height="39" viewBox="0 0 27 39" fill="none" xmlns="http://www.w3.org/2000/svg">
<path d="M11.2004 1.58391C9.26682 2.02466 7.98167 2.57262 6.51966 3.54943C3.92577 5.28861 1.96857 8.13563 1.23756 11.2209C0.978173 12.3168 0.88385 14.7827 1.04892 15.9977C1.32009 17.8679 2.169 20.0002 3.2773 21.5845C3.93756 22.5256 5.38778 23.9908 6.2249 24.5626L6.82621 24.9795L6.86158 31.0905L6.89695 37.2134L7.22708 37.4993C7.82839 38.0234 8.00525 37.94 10.8232 35.8077L13.4406 33.8422L14.714 34.7833C15.4096 35.3074 16.5887 36.1889 17.3314 36.7607C18.7227 37.809 19.1354 37.9758 19.5834 37.6303C20.0314 37.2848 20.0432 37.1181 20.0432 30.9714L20.055 24.9795L20.6563 24.5626C23.1677 22.8472 25.0424 19.9406 25.7262 16.7005C26.0328 15.1996 25.9738 12.3645 25.5965 10.9588C24.3939 6.50366 21.1751 3.18015 16.8009 1.85789C15.8576 1.57199 15.5039 1.53626 13.7354 1.50052C12.6389 1.4767 11.4952 1.52435 11.2004 1.58391ZM15.3978 2.53689C17.8856 2.97764 20.055 4.16886 21.8236 6.07482C23.1795 7.5162 24.0284 9.00522 24.5825 10.9231C25.0306 12.4479 25.1131 14.8422 24.783 16.4623C23.8044 21.2391 20.0079 24.9914 15.4214 25.7538C14.4782 25.9087 12.4149 25.9087 11.4716 25.7538C7.88734 25.1582 4.6214 22.6328 3.01791 19.1902C2.169 17.3676 1.95678 16.367 1.94499 14.199C1.94499 12.6742 1.99215 12.162 2.21616 11.2924C3.30088 6.9325 6.88516 3.46604 11.2004 2.58454C12.1437 2.39394 14.4546 2.3582 15.3978 2.53689ZM8.53582 25.8729L9.07817 26.1231V29.8993C9.07817 33.7469 9.10176 33.9732 9.52621 33.9732C9.60874 33.9732 10.5284 33.33 11.5659 32.5557L13.4524 31.1262L15.3389 32.5557C16.3764 33.33 17.2843 33.9732 17.3668 33.9732C17.8502 33.9613 17.862 33.9018 17.8974 29.8993L17.9328 26.0516L18.428 25.8372C18.6991 25.73 18.9703 25.6347 19.0175 25.6347C19.0646 25.6347 19.1 28.1243 19.1 31.1739C19.1 34.6522 19.0528 36.7131 18.9821 36.7131C18.9232 36.7131 17.697 35.8196 16.2585 34.7356C14.8319 33.6516 13.5939 32.7463 13.5232 32.7106C13.4406 32.6867 12.179 33.5801 10.6935 34.688C9.21966 35.8077 7.98167 36.7131 7.95809 36.7131C7.92272 36.7131 7.89913 34.2234 7.89913 31.1739C7.89913 28.1243 7.92272 25.6347 7.9463 25.6347C7.96988 25.6347 8.22927 25.7419 8.53582 25.8729ZM11.0825 26.6591C12.2616 26.9212 14.7376 26.9212 15.9048 26.6591C16.3882 26.5519 16.8009 26.4805 16.8245 26.5043C16.848 26.5281 16.848 27.8742 16.8363 29.4943L16.8009 32.4366L15.221 31.2453C14.3485 30.5783 13.5585 30.0422 13.4642 30.0422C13.3699 30.0422 12.6153 30.5425 11.8018 31.1501C10.9882 31.7695 10.2454 32.3055 10.1747 32.3532C10.0568 32.4247 10.0214 31.8052 10.0214 29.4585C10.0214 27.8146 10.0568 26.4685 10.1157 26.4685C10.1629 26.4685 10.5991 26.5519 11.0825 26.6591Z" fill="#1D438E"/>
<path d="M12.2622 4.67048C10.1282 4.94446 7.8762 6.14759 6.48493 7.73192C3.36048 11.3294 3.27794 16.6423 6.29628 20.3231C7.46353 21.7526 9.50327 23.0153 11.319 23.4561C12.557 23.7539 14.6085 23.73 15.8111 23.3965C19.1478 22.4912 21.7417 19.799 22.5906 16.3445C22.8854 15.1532 22.8854 13.0448 22.5906 11.8774C21.3762 7.14822 16.943 4.06295 12.2622 4.67048ZM15.4338 5.81405C16.8723 6.17142 18.4758 7.08866 19.4544 8.11311C19.9496 8.62533 20.6924 9.67361 21.0107 10.305C22.1308 12.5683 22.1308 15.7131 21.0107 17.9764C20.2089 19.5727 18.7587 21.0379 17.1906 21.836C15.4103 22.7413 13.0286 22.9677 11.1303 22.3959C6.5203 21.014 3.99716 16.1062 5.47096 11.389C6.2727 8.85167 8.65436 6.57643 11.26 5.8617C12.333 5.5758 14.3609 5.55198 15.4338 5.81405Z" fill="#1D438E"/>
<path d="M12.6862 8.30358C12.0731 8.518 11.7902 8.82772 11.2242 9.91174L10.7408 10.8052L9.83297 10.96C8.3238 11.2221 7.72249 11.6628 7.43952 12.7349C7.2155 13.5807 7.45131 14.212 8.34738 15.1769L9.11375 15.987L8.97227 17.0472C8.79541 18.3099 8.91332 18.8697 9.47925 19.4534C10.2928 20.2992 11.0945 20.3588 12.474 19.6917L13.429 19.2152L14.4312 19.6917C15.0325 19.9776 15.5985 20.1562 15.8696 20.1562C16.86 20.1562 17.8386 19.3224 18.0037 18.3337C18.0391 18.0954 18.0037 17.4641 17.933 16.9399L17.7915 15.9631L18.5461 15.165C19.6779 13.9857 19.843 12.997 19.1002 11.9606C18.6876 11.3769 18.1216 11.103 17.0133 10.9481L16.1408 10.829L15.6692 9.88791C15.1269 8.86346 14.7142 8.43462 14.0539 8.24402C13.488 8.08916 13.2522 8.10108 12.6862 8.30358ZM14.2544 9.47098C14.3958 9.61393 14.726 10.15 14.9854 10.6503C15.233 11.1506 15.4924 11.5914 15.5513 11.6271C15.6103 11.6747 16.129 11.782 16.7068 11.8773C17.8151 12.0678 18.2395 12.2942 18.4871 12.8183C18.7819 13.4139 18.6286 13.7117 17.3199 15.0936L16.7657 15.6892L16.9308 16.7017C17.1548 18.0954 17.143 18.2979 16.8011 18.703C16.2941 19.3224 15.9168 19.3105 14.6199 18.6672L13.488 18.1073L12.3443 18.6553C11.7076 18.9531 11.1063 19.2033 10.9884 19.2033C10.6465 19.2033 10.0216 18.7506 9.89192 18.4052C9.80939 18.1788 9.83297 17.75 9.95087 16.8923L10.1277 15.6892L9.79759 15.3318C9.62074 15.1412 9.23166 14.7004 8.92511 14.3788C8.42991 13.8428 8.37096 13.7236 8.37096 13.2233C8.37096 12.4133 8.72467 12.1512 10.2103 11.8892L11.3775 11.6867L11.9317 10.6384C12.2382 10.0666 12.5801 9.51863 12.698 9.41142C13.1343 9.01832 13.7827 9.04214 14.2544 9.47098Z" fill="#1D438E"/>
</svg>
