<svg width="92" height="92" viewBox="0 0 92 92" fill="none" xmlns="http://www.w3.org/2000/svg">
<path d="M0.328931 0.348564C0.135442 0.542206 0 0.793945 0 0.910133C0 1.39424 6.0175 24.1088 6.21098 24.3411C6.75275 24.9802 7.39126 24.6316 9.51964 22.5209L11.6093 20.4295L13.9505 22.7726L16.2917 25.1157L15.3823 26.51C14.2795 28.214 12.4026 32.0869 11.6867 34.1202C11.203 35.5532 11.1836 35.65 11.4932 36.1148C11.8028 36.5989 12.4413 36.7344 12.8863 36.444C13.0218 36.3665 13.4475 35.437 13.8344 34.372C17.5107 24.5154 25.1342 16.9827 34.8086 13.652C41.0002 11.5219 48.3528 11.2314 54.6605 12.8774C68.108 16.3823 78.1694 27.788 80.0075 41.5949C82.5035 60.301 69.2496 77.5935 50.5392 80.0721C37.6335 81.7956 24.8633 75.9862 17.5688 65.084C15.3243 61.7146 13.7957 58.3452 12.8476 54.5885C12.2672 52.2647 11.8028 49.0309 11.8028 47.1331C11.8028 45.6421 11.5126 45.1192 10.6806 45.1192C9.65508 45.1192 9.50029 45.9132 9.88727 49.5924C10.4484 55.305 12.422 60.9981 15.4017 65.6069L16.3111 67.0398L13.9699 69.3829L11.6093 71.7454L9.51964 69.654C7.95238 68.0855 7.31387 67.582 6.94624 67.582C6.65601 67.582 6.34643 67.6982 6.23033 67.8338C6.11424 67.9693 4.64373 73.2946 2.97972 79.6655C0.715908 88.2633 -0.0193489 91.3229 0.116093 91.5553C0.638512 92.3686 -0.425675 92.601 19.3489 87.4113C24.0119 86.1913 24.7665 85.8815 24.7665 85.1456C24.7665 85.0488 23.7991 83.9644 22.5995 82.7444L20.4324 80.5369L22.7736 78.1938L25.1148 75.8507L26.5466 76.7608C34.2862 81.7762 44.3089 83.6158 53.4609 81.7181C57.4661 80.8854 62.1485 78.9684 65.5539 76.7608L66.9858 75.8507L69.327 78.1938L71.6875 80.5562L69.5979 82.6476C68.0306 84.2161 67.5275 84.8552 67.5275 85.2231C67.5275 85.5136 67.6436 85.8234 67.7791 85.9396C67.8952 86.0558 73.2161 87.5081 79.5819 89.1928C91.5008 92.3299 91.4814 92.3299 91.9845 91.5553C92.1199 91.3229 91.3847 88.2439 89.1402 79.6461C86.0831 67.9693 85.8896 67.3884 85.0769 67.3884C84.9802 67.3884 83.8967 68.3566 82.6777 69.5572L80.4719 71.726L78.1307 69.3829L75.7895 67.0398L76.6989 65.6069C78.9047 62.1987 80.8008 57.5512 81.6522 53.446C83.529 44.3253 81.7296 34.4107 76.815 26.7423L75.7895 25.1351L78.1307 22.792L80.4913 20.4295L82.5809 22.5209C84.1482 24.0894 84.7867 24.5929 85.1543 24.5929C85.4446 24.5929 85.7542 24.4767 85.8702 24.3411C85.967 24.225 87.4375 18.8997 89.1209 12.5095C91.3073 4.18273 92.1006 0.832672 91.9651 0.619667C91.4814 -0.154915 91.4621 -0.154915 79.6012 2.96277C73.2354 4.64748 67.9339 6.09982 67.7791 6.216C67.1405 6.7582 67.4888 7.4166 69.5979 9.52733L71.6875 11.6187L69.327 13.9812L66.9858 16.3243L65.3798 15.2979C56.3632 9.50796 44.812 8.15245 34.3442 11.6381C31.6547 12.5288 28.7137 13.9231 26.5853 15.3173L25.0955 16.3049L22.7543 13.9618L20.413 11.6187L22.5027 9.52733C24.6118 7.4166 24.96 6.7582 24.3215 6.216C24.0506 6.00299 1.50921 0 0.948094 0C0.773954 0 0.50307 0.154915 0.328931 0.348564ZM8.32001 4.04718C11.1449 4.78303 15.1502 5.84808 17.2205 6.39028C19.2908 6.93249 21.1096 7.4166 21.2644 7.47469C21.4579 7.53278 20.9935 8.13308 19.7745 9.35304C18.4975 10.6311 17.9944 11.2701 17.9944 11.6187C17.9944 11.9673 18.691 12.7999 20.6839 14.8138L23.3734 17.5249L21.7868 18.8997C20.9161 19.6743 19.6391 20.9524 18.9425 21.7463C18.2653 22.5596 17.6075 23.218 17.5107 23.218C17.3946 23.2374 16.137 22.0561 14.7051 20.6232C12.7509 18.6674 11.9769 18.009 11.6093 18.009C11.261 18.009 10.6419 18.4931 9.3455 19.7905C8.12652 20.9911 7.52671 21.4752 7.46866 21.2816C7.41061 21.1266 6.30773 16.9633 5.01136 12.006C3.71498 7.06804 2.6121 2.88531 2.55405 2.74976C2.496 2.55611 2.5734 2.49802 2.82493 2.57548C3.01842 2.63357 5.49508 3.29196 8.32001 4.04718ZM89.5078 2.84658C89.4498 3.04022 88.3662 7.20359 87.0699 12.1028C85.7929 17.002 84.69 21.1266 84.6319 21.2816C84.5739 21.4752 83.9741 21.0105 82.7551 19.7905C81.4781 18.5124 80.8395 18.009 80.4913 18.009C80.143 18.009 79.311 18.7061 77.2987 20.6813L74.5899 23.3536L71.6682 20.4102L68.7465 17.4668L71.436 14.7751C73.4676 12.7418 74.1061 11.9866 74.1061 11.6187C74.1061 11.2508 73.6418 10.6698 72.3647 9.39178C71.4166 8.44292 70.6814 7.62961 70.7394 7.57151C70.8168 7.49406 89.0048 2.59484 89.4498 2.53675C89.5465 2.51738 89.5659 2.6723 89.5078 2.84658ZM20.6646 77.3611C18.691 79.375 17.9944 80.2077 17.9944 80.5562C17.9944 80.9048 18.4975 81.5438 19.7745 82.8219C20.9935 84.0419 21.4579 84.6422 21.2644 84.7002C20.742 84.8939 2.6121 89.6382 2.5734 89.5801C2.5347 89.5607 7.25582 71.4937 7.46866 70.8934C7.52671 70.6997 8.14587 71.1838 9.3455 72.3844C10.6419 73.6819 11.261 74.166 11.6093 74.166C11.9769 74.166 12.7702 73.5076 14.7632 71.4937L17.4527 68.802L20.3937 71.726L23.3347 74.6501L20.6646 77.3611ZM80.4913 74.166C80.8589 74.166 81.4587 73.7012 82.7164 72.4232C83.6645 71.4743 84.4771 70.7385 84.5352 70.7966C84.6319 70.8934 89.5659 89.5414 89.5078 89.5995C89.4885 89.6382 71.378 84.8939 70.8362 84.7002C70.6427 84.6422 71.1264 84.0225 72.326 82.8219C73.6224 81.5245 74.1061 80.9048 74.1061 80.5562C74.1061 80.1883 73.4483 79.3944 71.436 77.3998L68.7465 74.7082L71.6682 71.7648L74.5899 68.8214L77.2987 71.4937C79.3303 73.4882 80.143 74.166 80.4913 74.166Z" fill="#1D438E"/>
<path d="M33.2022 20.6999C32.0026 21.5132 31.9252 21.7843 31.9252 26.0639C31.9252 29.4139 31.9832 30.111 32.2928 31.0405C32.7959 32.4735 33.6085 33.6354 34.8275 34.6617L35.795 35.475V38.3216C35.795 42.6399 36.5109 44.6731 38.8521 47.0162C40.0324 48.1975 40.2065 48.4879 39.8969 48.6816C39.8002 48.7397 38.0394 49.2238 35.9691 49.7854C33.8988 50.3276 31.8865 50.9472 31.4995 51.1409C30.474 51.6637 29.4292 52.7675 28.9068 53.91L28.4424 54.8976V63.1662V71.4349L28.8681 71.7253C29.255 71.9964 31.2093 72.0352 46.0692 72.0352C62.3029 72.0352 62.864 72.0158 63.2897 71.6672C63.7347 71.3187 63.7541 71.1831 63.7541 68.84C63.7541 66.6325 63.7154 66.3614 63.3864 66.1096C62.8834 65.7611 62.3996 65.7611 62.032 66.1484C61.7998 66.3807 61.7224 66.8648 61.7224 68.1816V69.9051H59.7101H57.6979L57.6398 66.8842C57.5624 64.1732 57.5237 63.844 57.1948 63.5922C56.6917 63.2437 56.208 63.2437 55.8404 63.631C55.5888 63.8827 55.5308 64.4636 55.5308 66.9229V69.9051H46.0498H36.5689V66.9229C36.5689 64.4636 36.5109 63.8827 36.2593 63.631C35.8917 63.2437 35.408 63.2437 34.9049 63.5922C34.576 63.844 34.5373 64.1732 34.4792 66.9036L34.4212 69.9244L32.4476 69.8663L30.474 69.8082L30.416 63.2243C30.3966 59.119 30.4547 56.2725 30.5708 55.6528C30.8029 54.5297 31.7704 53.2516 32.6411 52.903C33.1635 52.69 39.626 50.9279 39.8776 50.9279C39.9356 50.9279 40.0517 51.3733 40.1097 51.8961C40.6709 56.6404 46.8625 58.6349 50.3066 55.1881C51.2934 54.2005 52.048 52.5932 52.048 51.5088C52.048 51.1796 52.1447 50.9279 52.2415 50.9279C52.6672 50.9279 59.1297 52.7288 59.6134 52.9805C60.368 53.3484 61.2967 54.4909 61.5096 55.3236C61.6257 55.7303 61.7224 57.0858 61.7224 58.3251C61.7224 60.8231 61.8966 61.2685 62.864 61.1523C63.7347 61.0555 63.8895 60.4358 63.7734 57.5699C63.6767 54.6265 63.309 53.5227 61.9933 52.2253C60.8904 51.1409 60.2906 50.8891 56.0339 49.7466C53.9248 49.1851 52.1641 48.6041 52.106 48.4686C52.048 48.333 52.5704 47.6746 53.2476 46.9969C55.6082 44.6344 56.3047 42.6205 56.3047 38.186V35.3007L57.0593 34.7779C58.0268 34.1001 58.9168 32.977 59.5554 31.6021C60.0197 30.6145 60.0778 30.266 60.0778 28.3682C60.0778 26.335 60.0391 26.1607 59.4393 24.9214C58.6073 23.256 57.2528 21.9005 55.5888 21.0678L54.2731 20.4288L44.0182 20.3707C34.2083 20.332 33.744 20.3513 33.2022 20.6999ZM54.5633 22.8687C58.1042 24.5534 59.2651 28.8911 56.982 31.8732L56.4982 32.5122L56.0145 32.0281L55.5501 31.5634H50.0744C45.8177 31.5634 44.3278 31.5053 43.4378 31.2729C41.7931 30.8469 39.3551 29.6076 38.1749 28.5813C37.1687 27.6905 36.4722 27.4775 36.0271 27.9229C35.8723 28.0778 35.795 28.8717 35.795 30.2466C35.795 31.3891 35.7176 32.338 35.6402 32.338C35.3499 32.338 34.8469 31.6796 34.4212 30.692C34.0342 29.8593 33.9762 29.2977 33.8988 26.4899C33.8214 23.682 33.8601 23.1786 34.1309 22.7525L34.4599 22.2491L43.9795 22.3072L53.4992 22.3653L54.5633 22.8687ZM39.2197 31.8345C39.8389 32.2024 41.0385 32.7446 41.8898 33.0351C43.3991 33.5579 43.6119 33.5773 48.8554 33.6741L54.2731 33.7903L54.3312 36.5982C54.3505 38.1473 54.2925 40.0063 54.1764 40.7615C53.77 43.5113 52.0286 45.8931 49.552 47.1131C48.3524 47.694 48.1782 47.7327 46.0498 47.7327C43.9021 47.7327 43.7667 47.7134 42.509 47.0937C40.1291 45.9125 38.4264 43.6662 37.9233 41.0713C37.6718 39.7546 37.6718 31.1761 37.904 31.1761C38.0007 31.1761 38.6005 31.4859 39.2197 31.8345ZM43.728 49.6885C45.5274 50.1339 48.1782 49.9596 49.8035 49.2819C50.1518 49.127 50.1712 49.2044 50.0551 50.5793C49.939 52.1672 49.6681 52.8643 48.8361 53.7164C48.0041 54.5297 47.2301 54.8589 46.1272 54.8589C43.5925 54.8589 42.0059 53.0192 41.9866 50.0758C41.9866 49.2625 42.0253 49.1657 42.3349 49.2819C42.509 49.3593 43.1475 49.553 43.728 49.6885Z" fill="#1D438E"/>
</svg>
