<svg width="100" height="97" viewBox="0 0 100 97" fill="none" xmlns="http://www.w3.org/2000/svg">
<path d="M27.5717 0.286781C26.4139 0.678116 25.158 1.59774 24.5496 2.47823C23.5881 3.84788 23.4507 4.61097 23.4507 8.48513V12.0658L13.5994 12.1245C4.06217 12.1832 3.70894 12.2028 2.84548 12.5941C1.8839 13.0441 0.843832 14.0029 0.333608 14.9225C0.019624 15.4704 0 17.564 0 40.6524V65.7953L0.529848 66.9106C1.25594 68.4563 2.453 69.689 4.0033 70.4521L5.29848 71.0783L31.889 71.137L58.4992 71.1761L58.7346 72.3109C59.1664 74.385 60.4027 76.0677 62.1688 76.9678C62.6791 77.2221 63.0912 77.4765 63.0912 77.5352C63.0912 77.5743 61.6782 80.0593 59.9513 83.0529C56.4386 89.1381 56.3013 89.4903 57.3806 90.5664C58.1067 91.2708 58.3814 91.2708 62.0315 90.6251C63.6014 90.3512 64.9162 90.136 64.9358 90.1751C64.9751 90.2143 65.4657 91.5643 66.0348 93.1492C67.2711 96.5538 67.7224 97.1212 69.0569 96.9451C69.5671 96.8669 70.0185 96.6516 70.2539 96.3777C70.4698 96.1233 71.8239 93.8732 73.276 91.3687C75.8272 86.9662 75.9057 86.8293 76.4159 86.9858C77.0635 87.1619 79.7127 87.1619 80.3603 86.9858C80.8509 86.8488 80.9687 87.0249 83.5786 91.5448C85.0897 94.1275 86.5222 96.4168 86.797 96.6125C87.5034 97.1799 88.4846 97.1212 89.1715 96.456C89.5836 96.0646 90.0153 95.1646 90.761 93.0318C91.3301 91.4469 91.8992 90.1556 92.017 90.1556C92.1347 90.1556 93.4103 90.3708 94.8624 90.6447C98.2966 91.2904 98.6891 91.2708 99.4152 90.5664C100.475 89.5099 100.338 89.1577 96.9426 83.2877C95.2549 80.3919 93.842 77.9069 93.7831 77.77C93.7243 77.5743 94.0382 77.2808 94.7447 76.8895C96.5109 75.8916 97.5706 74.4046 98.0219 72.2914C98.3163 70.8826 98.1593 69.8847 97.3743 68.1824L96.766 66.8519L97.2958 65.8344C97.963 64.4844 98.277 63.056 98.12 61.9798C97.7668 59.6123 96.452 57.6752 94.5877 56.8143C93.999 56.5208 93.4691 56.2077 93.4103 56.0903C93.3318 55.9729 93.1552 55.3273 93.0178 54.6424C92.6449 52.9206 92.1347 52.0205 90.8591 50.8661C89.9957 50.0639 89.4462 49.7508 88.3669 49.4377C87.0325 49.0268 86.2868 49.0073 84.6383 49.379C84.2066 49.4769 83.9515 49.3399 83.1077 48.5181C82.5189 47.9507 81.6359 47.3246 81.0275 47.0898L79.9678 46.6397V31.8279C79.9678 21.849 79.8893 16.6639 79.752 15.9987C79.4772 14.6877 78.5353 13.4941 77.2205 12.7702L76.1411 12.1832L66.2899 12.1245L56.4583 12.0658L56.3798 8.30904C56.3209 4.66967 56.3013 4.51314 55.7714 3.43698C55.1435 2.16516 54.0249 1.06944 52.7101 0.462883C51.827 0.0519867 51.5915 0.0519867 40.1311 0.0128555C29.8874 -0.0262833 28.3371 0.0128555 27.5717 0.286781ZM51.7093 3.45655C52.0821 3.65221 52.5923 4.16094 52.8278 4.57184C53.2399 5.27623 53.2792 5.56973 53.2792 8.70036V12.0854H51.7093H50.1393V9.65912C50.1393 7.50681 50.1001 7.19375 49.7272 6.72415L49.3348 6.21542H39.9349C31.0059 6.21542 30.535 6.23499 30.1032 6.58719C29.6519 6.93938 29.6322 7.11548 29.5734 9.52216L29.4949 12.0854H27.925H26.355L26.4335 8.58296C26.4924 4.68924 26.5709 4.47401 27.9642 3.51525L28.6118 3.08479H39.8171C50.3552 3.08479 51.0617 3.10435 51.7093 3.45655ZM46.9995 10.6179V12.0854H39.8367H32.674V10.6179V9.15039H39.8367H46.9995V10.6179ZM75.8272 15.5095C76.8476 16.0182 76.8476 16.1552 76.7887 26.4863L76.7299 36.0543L76.1804 37.1696C75.4936 38.5784 74.0218 39.9089 72.5892 40.4567C71.5099 40.8481 71.4118 40.8481 39.5816 40.8089L7.65336 40.7502L6.67216 40.2611C5.31811 39.6154 3.94443 38.1675 3.39495 36.7978C2.9436 35.663 2.9436 35.663 2.9436 26.0558C2.9436 16.703 2.96322 16.4095 3.33608 15.9987C3.55194 15.7639 3.90518 15.4899 4.12104 15.3921C4.33691 15.3138 20.4286 15.2356 39.8956 15.2356C70.4698 15.216 75.3562 15.2551 75.8272 15.5095ZM76.828 44.0374V46.6397L76.1019 46.8941C75.1796 47.2267 73.7078 48.2246 73.5508 48.5964C73.4919 48.7529 73.1975 49.0073 72.8836 49.1638C72.4322 49.3986 72.1378 49.4182 71.3333 49.2421C68.8803 48.7138 66.1133 49.9465 64.6807 52.1575C64.1705 52.9793 63.935 53.6641 63.5622 55.6599C63.5033 55.9534 63.1501 56.2664 62.4828 56.6186C60.0102 57.8513 58.6954 59.9449 58.6758 62.6647C58.6758 64.0539 58.7543 64.3865 59.3234 65.5605C59.9513 66.8519 59.971 66.891 59.6374 67.5563L59.3234 68.2411L32.6936 68.202L6.08344 68.1433L5.29848 67.7128C4.39578 67.2432 3.82668 66.6562 3.31646 65.6975C2.96322 65.0518 2.9436 64.3083 2.88473 53.3119C2.8651 46.8941 2.88473 41.6307 2.92398 41.6307C2.98285 41.6307 3.57157 41.9829 4.23879 42.4134C6.59367 43.92 6.00495 43.8613 19.5651 43.9396L31.6731 43.9983L31.732 46.9919C31.7909 49.9465 31.7909 49.9856 32.36 50.7096C33.3019 51.9618 33.557 52.0009 39.9349 52.0009C46.1753 52.0009 46.293 51.9814 47.2546 50.827C48.0003 49.966 48.1769 49.0855 48.1769 46.3658V43.9787H59.6374C66.4273 43.9787 71.5099 43.9004 72.1378 43.783C73.3545 43.5678 75.7879 42.4134 76.3374 41.8264C76.5336 41.6112 76.7299 41.4351 76.7691 41.4351C76.7887 41.4351 76.828 42.609 76.828 44.0374ZM44.9978 46.4636L44.939 48.9682H39.9349H34.9307L34.8719 46.4636L34.813 43.9787H39.9349H45.0567L44.9978 46.4636ZM79.8305 49.8682C80.0659 50.0052 80.7135 50.5139 81.2434 51.0226C82.5582 52.2357 83.3235 52.4705 85.4822 52.314C86.9932 52.1966 87.3268 52.2357 87.9744 52.5684C88.8575 53.0184 89.7406 53.9772 89.8583 54.6033C90.3097 56.9708 90.4274 57.2839 91.0946 58.0666C91.4871 58.5166 92.2721 59.1036 92.8608 59.3775C94.1756 60.0036 94.9017 61.0015 95.0391 62.3712C95.1176 63.1734 95.0194 63.5256 94.5092 64.5039C93.6654 66.1279 93.6654 67.5759 94.4896 69.2194C95.1764 70.5695 95.2353 71.5087 94.7055 72.6436C94.2737 73.5632 93.842 73.9937 92.8804 74.385C91.2909 75.0502 90.2704 76.4199 90.0349 78.1613C89.8976 79.2962 89.6032 79.9223 88.8575 80.6071C87.994 81.4289 87.3661 81.5854 85.384 81.4289C83.2058 81.2724 82.5778 81.4876 81.0864 82.8964C79.909 84.0117 78.81 84.3834 77.5541 84.0899C76.7299 83.9139 76.514 83.7573 75.3366 82.6029C74.2376 81.5463 73.276 81.2724 71.137 81.4485C69.1942 81.605 68.7429 81.4485 67.644 80.3136C67.1141 79.7658 66.9179 79.3549 66.702 78.2004C66.3488 76.3416 65.6815 75.3829 64.249 74.6002C62.8164 73.8371 62.5417 73.6023 62.0904 72.7218C61.5605 71.6457 61.6194 70.5108 62.3062 69.1216C63.1108 67.5172 63.1108 66.1671 62.3062 64.6605C61.6194 63.3691 61.5409 62.2733 62.0904 61.0994C62.5221 60.1797 62.9538 59.7493 63.9154 59.3579C65.5049 58.6927 66.4665 57.4013 66.7216 55.6012C66.8786 54.3881 67.33 53.5858 68.3112 52.8619C69.0373 52.314 69.0961 52.2944 71.1566 52.3531C73.6489 52.4118 74.218 52.2357 75.5917 50.9639C76.1215 50.4943 76.7102 50.0052 76.9261 49.8878C77.4363 49.5943 79.281 49.5943 79.8305 49.8682ZM65.4853 82.5833C66.0544 83.1508 66.9767 83.8356 67.5066 84.0899C68.37 84.5204 68.7429 84.5791 70.6857 84.5791C72.1182 84.5791 72.9621 84.6574 73.119 84.8139C73.2957 84.99 72.9228 85.7922 71.4314 88.375C70.3913 90.2143 69.4101 91.8578 69.2924 92.0339C69.0765 92.3079 68.9195 92.0144 68.1542 89.9403C67.5066 88.1989 67.1141 87.4162 66.7609 87.1423C66.2506 86.7706 66.231 86.7706 63.6799 87.201C62.267 87.4554 61.0699 87.6119 61.0307 87.5728C60.9718 87.5141 64.2882 81.5659 64.406 81.5463C64.4256 81.5463 64.9162 82.0159 65.4853 82.5833ZM94.1952 84.6965C95.0979 86.2423 95.7848 87.5532 95.7652 87.5923C95.7259 87.6315 94.5288 87.4554 93.1159 87.2206L90.5452 86.7706L90.0153 87.1619C89.6228 87.4554 89.2696 88.1598 88.622 89.9403C87.9352 91.8383 87.6997 92.2687 87.5231 92.0731C87.3857 91.9361 86.4241 90.3317 85.3644 88.4924C83.9515 86.0075 83.5001 85.0878 83.6571 84.8726C83.7945 84.6378 84.2851 84.5791 85.9728 84.5791C87.994 84.5791 88.1903 84.54 89.4462 83.9334C90.2901 83.503 91.0161 82.9747 91.4871 82.4072C91.8992 81.9181 92.2917 81.6246 92.3898 81.7224C92.4879 81.8202 93.2925 83.1508 94.1952 84.6965Z" fill="#1D438E"/>
<path d="M18.0147 22.0641C17.2298 22.3772 17.1709 22.8076 17.1709 28.1884C17.1709 33.3344 17.1709 33.354 17.6223 33.7649L18.0736 34.1953H39.8955C61.3642 34.1953 61.7174 34.1953 62.1099 33.804C62.3257 33.5888 62.5416 33.217 62.6005 32.9822C62.6593 32.7278 62.6986 30.3407 62.6593 27.6992C62.6005 22.9642 62.6005 22.8468 62.1491 22.4163L61.6978 21.9663L40.0721 21.9271C27.8464 21.9076 18.2698 21.9663 18.0147 22.0641ZM59.5195 28.071L59.4606 31.1625H39.8366H20.2126L20.1537 28.071L20.0949 24.9991H39.8366H59.5784L59.5195 28.071Z" fill="#1D438E"/>
<path d="M75.1016 54.5438C71.4908 55.5026 68.5275 57.9288 66.9576 61.216C66.467 62.2334 65.9764 63.5248 65.8587 64.0923C65.5447 65.5597 65.6035 68.5143 65.9372 69.9818C66.9576 74.2864 70.9609 78.2779 75.2782 79.2954C76.8874 79.6672 79.9487 79.6672 81.4401 79.2954C85.6985 78.2192 89.2897 74.8538 90.6242 70.6862C90.9774 69.5513 91.0559 68.8665 91.0559 66.7729C91.0559 64.5227 90.9774 64.0727 90.526 62.8009C89.7999 60.7855 88.8972 59.3767 87.4058 57.8897C85.8948 56.3831 84.5015 55.5026 82.4802 54.7982C80.4982 54.0938 77.1817 53.9764 75.1016 54.5438ZM81.1458 57.6158C84.0305 58.3984 86.719 61.0203 87.6609 63.9944C88.1515 65.5597 88.1908 67.9273 87.7394 69.5122C86.3657 74.2081 81.5971 77.2605 76.8677 76.4583C71.6281 75.5778 67.9584 70.6275 68.763 65.5206C69.6853 59.592 75.2782 56.0309 81.1458 57.6158Z" fill="#1D438E"/>
<path d="M79.8695 65.1109L76.9456 68.0263L75.4345 66.5784C73.9431 65.1305 73.4721 64.8957 72.6087 65.2283C72.2554 65.3653 71.7256 66.3045 71.7256 66.7936C71.7256 67.2241 75.5719 71.1569 76.298 71.47C76.612 71.5874 77.0633 71.6657 77.3184 71.6265C77.5735 71.5678 79.3201 69.983 81.3217 67.9676C84.6382 64.6413 84.8737 64.3478 84.8737 63.6826C84.8737 62.7629 84.3242 62.1759 83.4411 62.1759C82.8916 62.1759 82.4599 62.5281 79.8695 65.1109Z" fill="#1D438E"/>
</svg>
