<svg width="90" height="98" viewBox="0 0 90 98" fill="none" xmlns="http://www.w3.org/2000/svg">
<path d="M5.3918 0.260391C3.36496 0.789787 1.47586 2.43681 0.531309 4.45635L0 5.57397V37.1417V68.7095L0.610022 69.984C1.33811 71.533 2.71558 72.9251 4.21112 73.6506C5.25406 74.1603 5.50987 74.1996 8.48127 74.2584L11.6691 74.3368L11.8856 75.4348C12.3185 77.6308 13.8534 79.5327 16.018 80.5523L17.12 81.0621L33.7873 81.1209L50.435 81.1602L50.8483 80.6504C51.3599 80.0033 51.3599 79.768 50.8483 79.121L50.4547 78.6112H34.1809C18.2219 78.6112 17.8874 78.5916 17.0216 78.1995C15.9196 77.7093 15.3293 77.1603 14.7979 76.1603L14.365 75.376L14.306 44.3964C14.2666 21.4559 14.306 13.2012 14.4831 12.5934C14.7783 11.5346 15.8999 10.2209 16.9035 9.76994C17.6709 9.41701 18.6352 9.3974 35.1845 9.3974H52.639V14.0639C52.639 19.8481 52.7374 20.3187 54.3903 21.9657C56.0433 23.6127 56.5156 23.7107 62.3206 23.7107H67.004V33.6909C67.004 39.7691 67.0827 43.8867 67.2008 44.2004C67.5353 45.1023 68.8734 45.2396 69.4047 44.4161C69.4834 44.2984 69.5621 39.1809 69.5621 33.0242V21.8676L63.6587 15.9658L57.7553 10.0837V8.0641C57.7553 4.86811 56.7517 2.75052 54.5281 1.27997C52.4815 -0.072937 53.6425 -0.0141144 28.7301 0.00549316C11.6101 0.00549316 6.08054 0.0643158 5.3918 0.260391ZM51.9306 2.77013C53.5442 3.2407 55.1971 5.3779 55.1971 7.0053C55.1971 7.41706 55.1774 7.43667 54.7248 7.14256C54.3313 6.86806 52.147 6.84845 35.5977 6.88766L16.9232 6.94649L15.8409 7.47588C14.365 8.20135 13.145 9.43661 12.4169 10.966L11.8069 12.2405L11.7478 41.9847L11.7085 71.7486H9.13065C7.69414 71.7486 6.19861 71.6506 5.78537 71.5134C4.78178 71.2192 3.54206 70.1605 2.99107 69.1213L2.55816 68.3174V37.1417C2.55816 7.10334 2.57783 5.94651 2.93204 5.27986C3.62077 3.98578 4.64404 3.12305 6.00183 2.7113C6.27732 2.63287 16.5296 2.55444 28.8088 2.55444C45.791 2.53484 51.3205 2.59366 51.9306 2.77013ZM61.7499 21.1226C57.6766 21.1814 57.1846 21.1226 56.3581 20.4363C55.2955 19.554 55.1971 19.0246 55.1971 14.8482V11.064L60.215 16.0639L65.233 21.0637L61.7499 21.1226Z" fill="#1D438E"/>
<path d="M20.5043 11.8292C18.0643 12.7311 17.3558 15.8487 19.2253 17.5741C20.1108 18.3976 20.9963 18.6133 23.4561 18.6133C26.1913 18.6133 27.1555 18.28 28.0017 16.9859C28.7298 15.9075 28.7495 14.2801 28.0411 13.2605C27.1555 11.986 26.3094 11.6723 23.6135 11.6135C21.9408 11.5743 21.0357 11.6331 20.5043 11.8292ZM25.6403 14.4173C26.152 14.7702 26.1913 15.2212 25.7387 15.7114C25.4632 16.0055 25.109 16.0643 23.3183 16.0643C21.9605 16.0643 21.1537 15.9859 20.9963 15.829C20.6421 15.4761 20.7011 14.5546 21.1144 14.3193C21.685 13.986 25.1287 14.0448 25.6403 14.4173Z" fill="#1D438E"/>
<path d="M32.6851 11.8488C29.7334 12.8879 29.4382 16.8486 32.2129 18.2015C33.0393 18.5937 33.3935 18.6133 37.9982 18.6133C42.3668 18.6133 42.9965 18.5741 43.7049 18.2407C45.4759 17.4368 46.263 15.28 45.3775 13.5742C44.9052 12.6331 44.1968 12.084 43.0949 11.7703C41.8945 11.437 33.6494 11.4958 32.6851 11.8488ZM42.7603 14.4173C43.2916 14.7899 43.331 15.5938 42.8194 15.8683C42.5832 15.9859 40.6744 16.0643 37.9589 16.0643C34.0626 16.0643 33.4329 16.0251 33.118 15.731C32.6458 15.2996 32.6655 14.7702 33.1968 14.4173C33.5706 14.1624 34.3774 14.1036 37.9785 14.1036C41.5796 14.1036 42.3864 14.1624 42.7603 14.4173Z" fill="#1D438E"/>
<path d="M23.2593 26.7344C19.8156 27.9696 18.2611 31.7342 19.8747 34.9891C21.1144 37.538 24.0661 38.7733 26.8998 37.9498C28.1788 37.5772 29.576 36.44 30.3631 35.1263C30.8354 34.3028 30.8944 34.0087 30.8944 32.3421C30.8944 30.6754 30.8354 30.3813 30.3631 29.5578C29.6547 28.3618 28.2379 27.1461 27.1162 26.7736C26.0142 26.4011 24.2826 26.3814 23.2593 26.7344ZM27.0178 29.5382C27.9821 30.2441 28.4347 31.1264 28.4347 32.2832C28.4347 33.5577 28.0804 34.3028 27.1359 35.0087C25.5223 36.2439 23.0428 35.6753 22.1573 33.8518C21.626 32.7734 21.626 31.9107 22.1573 30.8323C22.7674 29.5774 23.8693 28.9696 25.3452 29.0676C26.0733 29.1069 26.6636 29.2637 27.0178 29.5382Z" fill="#1D438E"/>
<path d="M34.8106 28.5767C33.9841 29.1061 34.1219 30.4394 35.0271 30.7727C35.3419 30.8903 40.4386 30.9688 48.3098 30.9688C56.181 30.9688 61.2777 30.8903 61.5925 30.7727C62.4977 30.4394 62.6355 29.1061 61.809 28.5767C61.6909 28.4982 55.6104 28.4198 48.3098 28.4198C41.0092 28.4198 34.9287 28.4982 34.8106 28.5767Z" fill="#1D438E"/>
<path d="M34.8698 33.9284C34.1024 34.3794 34.063 35.6147 34.8108 36.1049C34.9288 36.1833 39.258 36.2617 44.4334 36.2617C53.564 36.2617 53.8395 36.2421 54.2134 35.8696C54.7447 35.3402 54.7053 34.7716 54.115 34.203L53.6427 33.7128H44.4334C38.3725 33.7324 35.1059 33.7912 34.8698 33.9284Z" fill="#1D438E"/>
<path d="M23.3979 42.8124C20.7217 43.6751 18.9309 46.3809 19.2458 49.0475C19.5213 51.2631 21.1743 53.3611 23.1617 54.0278C24.4802 54.4591 26.6448 54.3219 27.7861 53.7533C30.423 52.4004 31.6627 49.2632 30.6788 46.4005C30.2852 45.2241 29.0258 43.8124 27.8058 43.2045C26.6054 42.5967 24.5786 42.4202 23.3979 42.8124ZM26.5857 45.4594C27.7467 45.9888 28.2977 46.8711 28.3961 48.322C28.4552 49.3024 28.3961 49.6161 28.0026 50.1847C27.2745 51.2435 26.3693 51.7533 25.2083 51.7533C22.2369 51.7533 20.6823 48.4985 22.5911 46.3221C23.6931 45.0868 25.0705 44.7731 26.5857 45.4594Z" fill="#1D438E"/>
<path d="M34.5539 45.0077C34.0226 45.6744 34.0423 45.9881 34.6327 46.5567L35.1049 47.0469H48.2696C60.5487 47.0469 61.4736 47.0273 61.8475 46.6939C62.4575 46.1645 62.5362 45.6155 62.064 45.0273L61.6704 44.4979H48.309H34.9475L34.5539 45.0077Z" fill="#1D438E"/>
<path d="M68.4205 47.6382C66.9053 48.0499 65.1146 48.8538 63.7568 49.795C62.2416 50.8342 60.2147 53.2067 59.3686 54.9321C58.1485 57.383 57.9321 58.5202 57.814 63.1672L57.7156 67.2455H57.2433C56.1217 67.2455 54.6065 68.3435 54.0948 69.5396C53.8784 70.0493 53.8193 72.4806 53.8193 82.6372C53.8193 94.6173 53.839 95.1271 54.2129 95.8526C54.6852 96.7937 55.5904 97.5584 56.5349 97.8329C57.0269 97.9898 61.9661 98.029 72.3364 97.9898L87.3902 97.9309L88.197 97.4015C88.6299 97.1074 89.2006 96.5388 89.4564 96.1271L89.9287 95.382L89.9877 83.0686C90.0271 74.8727 89.968 70.5003 89.8303 69.9905C89.4367 68.5592 87.8428 67.2455 86.485 67.2455H85.8947V63.3632C85.8947 58.7359 85.6782 57.5399 84.3991 54.9125C83.6317 53.3439 83.2184 52.7753 81.7819 51.3636C78.968 48.5597 75.7408 47.246 71.7264 47.2656C70.5457 47.2656 69.3257 47.4029 68.4205 47.6382ZM74.3239 50.0107C74.8946 50.1283 76.1146 50.5793 77.0198 51.0106C79.2828 52.089 81.0342 53.8341 82.1165 56.0889C83.1988 58.3242 83.3365 59.2261 83.3365 63.5201V67.2455H82.3723H81.4081L81.3293 63.2652C81.2506 59.8731 81.1719 59.1477 80.8177 58.1869C78.4367 51.6773 70.5261 49.7362 65.4688 54.4027C64.8194 54.9909 64.0323 55.9713 63.6978 56.6183C62.6745 58.5398 62.4777 59.6575 62.4777 63.677V67.2651L61.4544 67.2063L60.4115 67.1475V63.4221C60.4115 59.2457 60.5689 58.3438 61.6315 56.0889C62.5171 54.2262 64.7604 51.9322 66.5117 51.0891C68.9912 49.8734 71.8051 49.5009 74.3239 50.0107ZM73.5958 54.5988C75.9769 55.2066 77.9053 57.1281 78.5154 59.5006C78.7122 60.3241 78.8105 61.6378 78.8105 63.9515V67.2455H71.9035H65.0162L65.0752 63.3632C65.1343 59.6771 65.1539 59.4418 65.6459 58.4222C66.5708 56.4419 68.1253 55.1086 70.1325 54.5792C71.3722 54.2458 72.2184 54.2458 73.5958 54.5988ZM87.0754 70.1866C87.4689 70.5787 87.4689 70.8336 87.4689 82.5784V94.5781L87.036 95.0291L86.6228 95.48H71.8838C57.4204 95.48 57.1646 95.48 56.7711 95.0879C56.3775 94.6957 56.3775 94.4408 56.3775 82.598C56.3775 71.6179 56.4168 70.4807 56.712 70.1474C57.0072 69.8141 57.7353 69.7944 71.8642 69.7944C86.426 69.7944 86.6818 69.7944 87.0754 70.1866Z" fill="#1D438E"/>
<path d="M69.8571 74.1063C68.0468 74.8122 66.6102 76.6356 66.3151 78.6356C66.1183 79.9689 66.6693 81.7335 67.6138 82.8119L68.3813 83.6747V86.1844C68.3813 88.3412 68.4403 88.8118 68.7945 89.5569C69.8768 91.7725 72.8089 92.145 74.4618 90.2823C75.2686 89.3608 75.4654 88.4981 75.4654 85.9099V83.6747L76.1541 82.8904C77.0987 81.7728 77.5119 80.4591 77.3939 78.7924C77.1184 75.1063 73.3598 72.773 69.8571 74.1063ZM73.3008 76.6356C75.3277 77.6944 75.4457 80.4787 73.5173 81.91L72.9072 82.361V85.2825C72.9072 87.9687 72.8679 88.2628 72.5137 88.6157C72.0414 89.0863 71.7659 89.1059 71.2936 88.6745C70.9788 88.4 70.9394 88.0275 70.9394 85.4589V82.5767L69.9752 81.5963C68.5977 80.1846 68.4403 78.8905 69.5226 77.4592C70.3884 76.3023 72.0021 75.9298 73.3008 76.6356Z" fill="#1D438E"/>
<path d="M34.6336 50.2611C34.181 50.5944 34.1614 51.6532 34.6139 52.1042C34.9091 52.4179 35.7553 52.4375 44.394 52.4375H53.8591L54.233 51.9669C54.6856 51.4179 54.7053 51.0062 54.2921 50.4179L53.9969 49.9866H44.4924C36.8179 49.9866 34.9288 50.0454 34.6336 50.2611Z" fill="#1D438E"/>
<path d="M23.8491 58.812C22.1174 59.263 20.6218 60.459 19.756 62.1453C19.087 63.4589 19.1066 65.7922 19.815 67.1647C22.078 71.4979 28.1192 71.5568 30.3428 67.2628C32.291 63.557 29.8509 59.1061 25.6594 58.7336C25.0691 58.6748 24.2623 58.714 23.8491 58.812ZM27.0763 61.8315C27.9421 62.4198 28.4341 63.4001 28.4341 64.5962C28.4341 66.1451 27.4305 67.4196 25.9349 67.8314C22.9439 68.6157 20.5628 65.0471 22.4322 62.6158C23.5539 61.1453 25.5217 60.812 27.0763 61.8315Z" fill="#1D438E"/>
<path d="M34.6327 61.0662C34.0423 61.6348 34.0226 61.9486 34.5539 62.6152L34.9475 63.125H43.4091C51.5952 63.125 51.8707 63.1054 52.2446 62.7329C52.7759 62.2035 52.7365 61.5172 52.1855 61.0074C51.7329 60.576 51.6739 60.576 43.4091 60.576H35.1049L34.6327 61.0662Z" fill="#1D438E"/>
<path d="M34.8101 66.2211C34.0426 66.7309 34.1017 67.9858 34.9281 68.4172C35.2036 68.5544 37.2108 68.6132 41.2448 68.574C46.8334 68.5152 47.1679 68.4956 47.4434 68.1427C47.8173 67.6133 47.7976 66.7701 47.3647 66.3976C47.0499 66.1035 46.3021 66.0643 41.0087 66.0643C37.7224 66.0643 34.9281 66.1427 34.8101 66.2211Z" fill="#1D438E"/>
</svg>
